<mxfile host="app.diagrams.net" modified="2021-06-11T11:08:21.051Z" agent="5.0 (X11; Linux x86_64) AppleWebKit/537.36 (KHTML, like Gecko) Chrome/91.0.4472.101 Safari/537.36" etag="MyDjyiytym2USAIAt7zv" version="14.7.4" type="github">
  <diagram id="5ftyGxo99AyewhtqQOWY" name="Page-1">
    <mxGraphModel dx="1781" dy="1630" grid="1" gridSize="10" guides="1" tooltips="1" connect="1" arrows="1" fold="1" page="1" pageScale="1" pageWidth="850" pageHeight="1100" math="0" shadow="0">
      <root>
        <mxCell id="0" />
        <mxCell id="1" parent="0" />
        <mxCell id="QBKHciUDxmCOURVR-8X0-8" style="edgeStyle=orthogonalEdgeStyle;rounded=0;orthogonalLoop=1;jettySize=auto;html=1;exitX=0.5;exitY=1;exitDx=0;exitDy=0;entryX=0.5;entryY=0;entryDx=0;entryDy=0;" edge="1" parent="1" source="QBKHciUDxmCOURVR-8X0-1" target="QBKHciUDxmCOURVR-8X0-6">
          <mxGeometry relative="1" as="geometry" />
        </mxCell>
        <mxCell id="QBKHciUDxmCOURVR-8X0-1" value="USER" style="rounded=1;whiteSpace=wrap;html=1;" vertex="1" parent="1">
          <mxGeometry x="30" y="-120" width="100" height="50" as="geometry" />
        </mxCell>
        <mxCell id="QBKHciUDxmCOURVR-8X0-16" style="edgeStyle=orthogonalEdgeStyle;rounded=0;orthogonalLoop=1;jettySize=auto;html=1;exitX=0;exitY=0.5;exitDx=0;exitDy=0;entryX=0;entryY=0.5;entryDx=0;entryDy=0;" edge="1" parent="1" source="QBKHciUDxmCOURVR-8X0-2" target="QBKHciUDxmCOURVR-8X0-3">
          <mxGeometry relative="1" as="geometry" />
        </mxCell>
        <mxCell id="QBKHciUDxmCOURVR-8X0-2" value="COVER WEBPAGE&lt;br&gt;MAIN URL" style="rounded=1;whiteSpace=wrap;html=1;" vertex="1" parent="1">
          <mxGeometry x="20" y="10" width="120" height="60" as="geometry" />
        </mxCell>
        <mxCell id="QBKHciUDxmCOURVR-8X0-3" value="SIGN UP" style="rounded=1;whiteSpace=wrap;html=1;" vertex="1" parent="1">
          <mxGeometry x="30" y="90" width="60" height="30" as="geometry" />
        </mxCell>
        <mxCell id="QBKHciUDxmCOURVR-8X0-4" value="LOG IN" style="rounded=1;whiteSpace=wrap;html=1;" vertex="1" parent="1">
          <mxGeometry x="90" y="90" width="60" height="30" as="geometry" />
        </mxCell>
        <mxCell id="QBKHciUDxmCOURVR-8X0-9" style="edgeStyle=orthogonalEdgeStyle;rounded=0;orthogonalLoop=1;jettySize=auto;html=1;exitX=0.5;exitY=1;exitDx=0;exitDy=0;entryX=0.5;entryY=0;entryDx=0;entryDy=0;" edge="1" parent="1" source="QBKHciUDxmCOURVR-8X0-6" target="QBKHciUDxmCOURVR-8X0-2">
          <mxGeometry relative="1" as="geometry" />
        </mxCell>
        <mxCell id="QBKHciUDxmCOURVR-8X0-12" style="edgeStyle=orthogonalEdgeStyle;rounded=0;orthogonalLoop=1;jettySize=auto;html=1;exitX=1;exitY=0.5;exitDx=0;exitDy=0;entryX=0.5;entryY=0;entryDx=0;entryDy=0;" edge="1" parent="1" source="QBKHciUDxmCOURVR-8X0-6" target="QBKHciUDxmCOURVR-8X0-11">
          <mxGeometry relative="1" as="geometry" />
        </mxCell>
        <mxCell id="QBKHciUDxmCOURVR-8X0-6" value="NOT LOGGED" style="ellipse;whiteSpace=wrap;html=1;" vertex="1" parent="1">
          <mxGeometry x="30" y="-50" width="100" height="40" as="geometry" />
        </mxCell>
        <mxCell id="QBKHciUDxmCOURVR-8X0-13" style="edgeStyle=orthogonalEdgeStyle;rounded=0;orthogonalLoop=1;jettySize=auto;html=1;exitX=0.5;exitY=1;exitDx=0;exitDy=0;entryX=1;entryY=0.5;entryDx=0;entryDy=0;" edge="1" parent="1" source="QBKHciUDxmCOURVR-8X0-11" target="QBKHciUDxmCOURVR-8X0-4">
          <mxGeometry relative="1" as="geometry" />
        </mxCell>
        <mxCell id="QBKHciUDxmCOURVR-8X0-17" style="edgeStyle=orthogonalEdgeStyle;rounded=0;orthogonalLoop=1;jettySize=auto;html=1;exitX=0.75;exitY=1;exitDx=0;exitDy=0;entryX=1;entryY=0.5;entryDx=0;entryDy=0;" edge="1" parent="1" source="QBKHciUDxmCOURVR-8X0-11" target="QBKHciUDxmCOURVR-8X0-14">
          <mxGeometry relative="1" as="geometry">
            <Array as="points">
              <mxPoint x="250" y="70" />
              <mxPoint x="250" y="160" />
            </Array>
          </mxGeometry>
        </mxCell>
        <mxCell id="QBKHciUDxmCOURVR-8X0-11" value="PUBLICATION URL" style="rounded=1;whiteSpace=wrap;html=1;" vertex="1" parent="1">
          <mxGeometry x="190" y="10" width="120" height="60" as="geometry" />
        </mxCell>
        <mxCell id="QBKHciUDxmCOURVR-8X0-14" value="VIEW WEBPAGE W/OUT INTERACTION PERMITS" style="rounded=1;whiteSpace=wrap;html=1;" vertex="1" parent="1">
          <mxGeometry x="30" y="130" width="120" height="60" as="geometry" />
        </mxCell>
      </root>
    </mxGraphModel>
  </diagram>
</mxfile>
